<svg width="20" height="20" viewBox="0 0 20 20" fill="none" xmlns="http://www.w3.org/2000/svg">
<circle cx="10" cy="10" r="10" fill="#F0C863"/>
<rect width="6.63589" height="1.45736" rx="0.728678" transform="matrix(0.707107 -0.707107 -0.707107 -0.707107 9.80718 15.0122)" fill="white"/>
<mask id="mask0_1379_89" style="mask-type:luminance" maskUnits="userSpaceOnUse" x="9" y="9" width="6" height="6">
<rect width="6.63589" height="1.45736" rx="0.728678" transform="matrix(0.707107 -0.707107 -0.707107 -0.707107 9.80718 15.0122)" fill="white"/>
</mask>
<g mask="url(#mask0_1379_89)">
</g>
<rect width="6.63589" height="1.45736" rx="0.728678" transform="matrix(0.707107 0.707107 0.707107 -0.707107 5.00787 10.303)" fill="white"/>
<mask id="mask1_1379_89" style="mask-type:luminance" maskUnits="userSpaceOnUse" x="5" y="9" width="6" height="6">
<rect width="6.63589" height="1.45736" rx="0.728678" transform="matrix(0.707107 0.707107 0.707107 -0.707107 5.00787 10.303)" fill="white"/>
</mask>
<g mask="url(#mask1_1379_89)">
</g>
<rect width="9.04894" height="1.45736" rx="0.728678" transform="matrix(0 1 1 0 9.03777 4.37036)" fill="white"/>
<mask id="mask2_1379_89" style="mask-type:luminance" maskUnits="userSpaceOnUse" x="9" y="4" width="2" height="10">
<rect width="9.04894" height="1.45736" rx="0.728678" transform="matrix(0 1 1 0 9.03777 4.37036)" fill="white"/>
</mask>
<g mask="url(#mask2_1379_89)">
</g>
</svg>
