<svg width="1024" height="1024" viewBox="0 0 1024 1024" fill="none" xmlns="http://www.w3.org/2000/svg">
  <defs>
    <linearGradient id="g" x1="0" y1="0" x2="1" y2="1">
      <stop offset="0%" stop-color="#4E8BFF" />
      <stop offset="100%" stop-color="#6FD2FF" />
    </linearGradient>
  </defs>
  <rect x="72" y="72" width="880" height="880" rx="200" fill="url(#g)" />
  <path d="M310 366c0-38 31-69 69-69h266c38 0 69 31 69 69v292c0 38-31 69-69 69H379c-38 0-69-31-69-69V366Z" stroke="white" stroke-width="60" fill="none" stroke-linejoin="round"/>
  <circle cx="512" cy="512" r="116" fill="white"/>
  <circle cx="512" cy="512" r="58" fill="#4E8BFF"/>
  <path d="M410 334c0-26 21-47 47-47h110c26 0 47 21 47 47" stroke="white" stroke-width="40" stroke-linecap="round" />
</svg>
