<svg width="1024" height="1024" viewBox="0 0 1024 1024" fill="none" xmlns="http://www.w3.org/2000/svg">
<rect width="1024" height="1024" fill="#7069FA"/>
<path d="M523.41 628.518C523.41 577.381 523.41 527.364 523.41 477.348C523.41 468.625 528.352 463.558 536.103 460.193C555.384 451.761 574.442 442.894 593.874 434.859C600.652 432.035 600.763 429.321 597.918 423.496C580.146 387.304 562.674 351.113 545.5 314.922C534.267 291.252 539.248 279.056 563.622 267.873C577.624 261.395 591.665 254.917 605.856 248.8C628.32 239.21 641.425 243.77 652.919 264.471C660.408 277.898 660.408 277.862 674.635 271.709C684.67 267.077 694.891 262.408 705.187 258.355C722.898 251.659 736.602 256.798 744.463 273.519C754.984 295.994 764.944 318.685 774.79 341.414C777.6 347.928 780.632 350.136 787.671 346.227C793.686 343.062 800.022 340.503 806.578 338.591C821.555 333.886 834.398 338.084 841.699 351.402C857.074 379.607 871.078 408.44 883.708 437.899C889.362 451.037 884.308 463.486 871.278 471.375C864.655 475.294 857.719 478.695 850.536 481.546C845.031 483.789 844.769 486.323 847.241 491.137C855.89 508.111 863.827 525.446 872.551 542.384C889.773 575.715 885.094 588.709 850.086 603.473C842.597 606.587 835.521 610.351 827.995 613.101C822.043 615.272 820.244 617.843 823.577 623.56C825.858 627.837 827.726 632.307 829.156 636.914C834.585 652.477 829.83 665.252 814.928 672.815C798.154 681.334 781.143 689.44 763.896 697.137C747.758 704.376 733.942 700.141 724.545 685.446C720.95 679.466 717.712 673.292 714.847 666.954C699.309 634.743 683.847 602.715 668.682 570.396C666.062 564.858 663.365 566.45 659.397 568.225C617.611 586.899 575.803 605.514 533.969 624.067C530.936 625.442 527.829 626.672 523.41 628.518Z" fill="white"/>
<path d="M499.319 394.909C499.319 409.855 499.319 423.862 499.319 438.011C499.319 472.683 499.319 507.355 499.957 542.025C501.054 551.633 495.065 560.68 485.58 563.741C466.858 571.558 448.138 580.533 429.418 588.532C423.315 591.101 421.929 593.092 425.074 599.389C443.371 636.593 461.306 673.99 478.877 711.581C488.613 732.283 483.594 745.311 462.59 755.011C447.615 762.032 432.188 768.873 416.762 775.351C394.522 784.687 382.092 780.237 370.708 759.499C363.034 745.493 363.034 745.493 348.468 751.79C338.547 756.06 328.699 760.621 318.516 764.566C300.581 771.549 286.541 766.448 278.341 749.51C267.408 726.891 256.775 704.125 246.628 681.18C243.895 675.065 241.274 674.558 235.621 677.163C228.881 680.249 221.909 682.839 214.766 684.908C200.763 689.034 187.883 684.908 181.068 672.387C165.867 643.904 151.602 614.77 139.022 584.985C132.919 570.508 141.156 555.307 156.694 548.793C164.182 545.789 175.415 545.572 177.175 538.732C178.71 533.086 171.708 525.341 168.488 518.501C161 502.939 153.512 487.376 146.398 471.743C136.026 449.413 141.193 436.203 164.257 425.743C174.666 421.038 185.037 416.152 195.671 411.881C201.1 409.71 203.159 407.538 199.752 402.074C197.39 397.839 195.398 393.421 193.798 388.864C187.92 373.556 192.75 359.694 207.764 352.058C225.099 343.227 242.772 335.012 260.556 327.122C274.41 320.97 287.027 324.444 296.013 336.315C299.2 340.766 301.957 345.491 304.251 350.429C320.163 383.002 336.15 415.573 351.577 448.543C355.096 456.035 357.83 457.989 366.329 454.081C407.327 435.225 448.699 417.13 489.884 398.745C492.694 397.478 495.614 396.428 499.319 394.909Z" fill="white"/>
</svg>
