<svg width="39" height="35" viewBox="0 0 39 35" fill="none" xmlns="http://www.w3.org/2000/svg">
<path d="M16.8964 1.52174C18.0535 -0.507246 20.9464 -0.507246 22.1036 1.52174L38.5927 30.4348C39.7499 32.4638 38.3034 35 35.9892 35H3.01081C0.696544 35 -0.749879 32.4638 0.407255 30.4348L16.8964 1.52174Z" fill="#EF4F4E"/>
<path d="M19.5176 23.8151C18.9497 23.8151 18.6407 23.4938 18.5906 22.8513L17.8641 13.518C17.8306 12.9938 17.9643 12.5542 18.2649 12.1991C18.5822 11.844 18.9915 11.6665 19.4925 11.6665C19.9936 11.6665 20.4027 11.844 20.7201 12.1991C21.0374 12.5542 21.1711 12.9938 21.121 13.518L20.4195 22.8513C20.3694 23.4938 20.0687 23.8151 19.5176 23.8151ZM19.3422 29.4201C18.8578 29.4201 18.482 29.2933 18.2148 29.0397C17.9643 28.7691 17.8391 28.3887 17.8391 27.8984V27.4672C17.8391 26.9769 17.9643 26.6049 18.2148 26.3513C18.482 26.0807 18.8578 25.9455 19.3422 25.9455H19.6679C20.1522 25.9455 20.5197 26.0807 20.7702 26.3513C21.0374 26.6049 21.1711 26.9769 21.1711 27.4672V27.8984C21.1711 28.3887 21.0374 28.7691 20.7702 29.0397C20.5197 29.2933 20.1522 29.4201 19.6679 29.4201H19.3422Z" fill="white"/>
</svg>
