<svg width="220" height="53" viewBox="0 0 220 53" fill="none" xmlns="http://www.w3.org/2000/svg">
<path d="M38.0998 37.8942C38.0998 32.8546 38.0998 27.9254 38.0998 22.9964C38.0998 22.1368 38.5871 21.6374 39.3513 21.3058C41.2524 20.4748 43.1315 19.601 45.0476 18.8091C45.7159 18.5308 45.7268 18.2634 45.4463 17.6892C43.694 14.1226 41.9712 10.5559 40.2779 6.9893C39.1703 4.65672 39.6614 3.45477 42.0647 2.35268C43.4453 1.71425 44.8298 1.07583 46.229 0.473066C48.4439 -0.472097 49.7361 -0.0227036 50.8694 2.01742C51.6078 3.34064 51.6078 3.33708 53.0105 2.73073C54 2.27422 55.0078 1.81411 56.0229 1.41465C57.7692 0.754829 59.1204 1.26128 59.8956 2.90906C60.9329 5.12395 61.915 7.36024 62.8858 9.60009C63.1628 10.2421 63.4618 10.4596 64.1558 10.0744C64.7489 9.76249 65.3736 9.51031 66.0201 9.32188C67.4968 8.85821 68.7631 9.27195 69.483 10.5845C70.9989 13.3641 72.3797 16.2055 73.625 19.1087C74.1825 20.4034 73.6842 21.6303 72.3994 22.4078C71.7465 22.794 71.0625 23.1291 70.3543 23.4101C69.8115 23.6311 69.7857 23.8809 70.0294 24.3553C70.8822 26.0281 71.6647 27.7364 72.525 29.4057C74.223 32.6904 73.7617 33.971 70.3099 35.426C69.5715 35.7328 68.8738 36.1038 68.1318 36.3748C67.5449 36.5888 67.3676 36.8421 67.6961 37.4056C67.921 37.827 68.1052 38.2676 68.2463 38.7216C68.7816 40.2553 68.3126 41.5143 66.8433 42.2597C65.1895 43.0991 63.5122 43.8981 61.8116 44.6566C60.2205 45.3699 58.8582 44.9526 57.9316 43.5045C57.5771 42.9151 57.2579 42.3066 56.9754 41.682C55.4434 38.5076 53.9188 35.3513 52.4236 32.1662C52.1653 31.6205 51.8994 31.7774 51.5081 31.9523C47.388 33.7926 43.2657 35.6271 39.1409 37.4556C38.8419 37.5911 38.5355 37.7122 38.0998 37.8942Z" fill="#7069FA"/>
<path d="M35.7245 14.8721C35.7245 16.3451 35.7245 17.7254 35.7245 19.1198C35.7245 22.5368 35.7245 25.9537 35.7874 29.3704C35.8955 30.3172 35.3051 31.2088 34.3698 31.5105C32.5238 32.2808 30.678 33.1653 28.8322 33.9536C28.2305 34.2067 28.0939 34.403 28.404 35.0236C30.208 38.6901 31.9764 42.3755 33.709 46.0801C34.6688 48.1203 34.174 49.4042 32.103 50.36C30.6264 51.052 29.1054 51.7262 27.5844 52.3646C25.3916 53.2847 24.1659 52.8461 23.0435 50.8024C22.2869 49.4221 22.2869 49.4221 20.8506 50.0426C19.8724 50.4635 18.9015 50.9129 17.8974 51.3017C16.129 51.9899 14.7447 51.4872 13.9362 49.818C12.8582 47.5888 11.8097 45.3453 10.8093 43.0841C10.5398 42.4814 10.2814 42.4315 9.72394 42.6882C9.0594 42.9923 8.37202 43.2476 7.66765 43.4515C6.28696 43.858 5.01701 43.4515 4.34513 42.2175C2.8463 39.4105 1.43976 36.5394 0.199346 33.6041C-0.402402 32.1774 0.409774 30.6793 1.94183 30.0373C2.68017 29.7413 3.78767 29.7199 3.96119 29.0459C4.11255 28.4895 3.42221 27.7262 3.10471 27.0521C2.36637 25.5184 1.62803 23.9847 0.926612 22.4441C-0.09599 20.2435 0.413465 18.9416 2.68755 17.9108C3.71385 17.4471 4.73644 16.9656 5.78488 16.5447C6.32019 16.3307 6.52322 16.1167 6.18729 15.5782C5.95439 15.1609 5.75805 14.7255 5.6003 14.2764C5.02071 12.7677 5.49694 11.4017 6.97731 10.6492C8.68656 9.77891 10.4291 8.96927 12.1826 8.19174C13.5485 7.58542 14.7926 7.92782 15.6787 9.09767C15.9929 9.53634 16.2647 10.002 16.4908 10.4887C18.0597 13.6986 19.6361 16.9086 21.1572 20.1577C21.5041 20.8961 21.7737 21.0886 22.6117 20.7035C26.6541 18.8453 30.7333 17.062 34.7942 15.2502C35.0712 15.1253 35.3591 15.0218 35.7245 14.8721Z" fill="#7069FA"/>
<path d="M96.6962 42.9698C94.4985 42.9698 92.4559 42.5872 90.5682 41.8219C88.7086 41.0283 87.0604 39.9371 85.6235 38.5483C84.2147 37.1312 83.1159 35.5015 82.327 33.6592C81.5381 31.7886 81.1437 29.7762 81.1437 27.6222C81.1437 25.4681 81.5381 23.4699 82.327 21.6277C83.1159 19.757 84.2006 18.1273 85.5812 16.7385C86.9899 15.3214 88.6241 14.2302 90.4836 13.4649C92.3713 12.6713 94.3999 12.2745 96.5694 12.2745C99.0488 12.2745 101.387 12.7847 103.585 13.805C105.811 14.797 107.614 16.2142 108.995 18.0565L103.881 22.5205C102.951 21.2734 101.866 20.3381 100.627 19.7145C99.3869 19.091 98.0345 18.7792 96.5694 18.7792C95.4424 18.7792 94.3859 19.0059 93.3997 19.4594C92.4418 19.8846 91.6106 20.5081 90.9063 21.3301C90.2019 22.1237 89.6525 23.059 89.258 24.136C88.8636 25.1847 88.6664 26.3467 88.6664 27.6222C88.6664 28.8976 88.8636 30.088 89.258 31.1934C89.6806 32.2704 90.2582 33.2057 90.9908 33.9993C91.7233 34.7929 92.5827 35.4165 93.5688 35.8699C94.5549 36.3234 95.6396 36.5502 96.823 36.5502C97.95 36.5502 98.9643 36.3376 99.8659 35.9125C100.796 35.4873 101.585 34.9063 102.233 34.1694C102.881 33.4041 103.331 32.5397 103.585 31.576H96.189V25.4114H111.403V27.4946C111.403 29.7337 111.037 31.8027 110.305 33.7017C109.6 35.5723 108.586 37.2021 107.262 38.5909C105.938 39.9797 104.374 41.0567 102.571 41.8219C100.796 42.5872 98.8375 42.9698 96.6962 42.9698ZM113.84 42.5022V12.232L120.687 11.1691V42.5022H113.84ZM123.903 42.5022V20.5648H130.749V42.5022H123.903ZM127.326 17.2062C126.283 17.2062 125.382 16.8235 124.621 16.0583C123.86 15.293 123.48 14.3861 123.48 13.3374C123.48 12.2603 123.86 11.3534 124.621 10.6165C125.382 9.8512 126.297 9.46857 127.368 9.46857C128.411 9.46857 129.298 9.8512 130.031 10.6165C130.791 11.3534 131.172 12.2462 131.172 13.2949C131.172 14.3719 130.791 15.293 130.031 16.0583C129.298 16.8235 128.396 17.2062 127.326 17.2062ZM137.177 42.5022V25.8791H132.655V20.5648H137.177V17.6738C137.177 15.0663 137.923 13.0681 139.417 11.6793C140.91 10.2905 143.065 9.59611 145.883 9.59611C146.474 9.59611 147.108 9.63862 147.784 9.72365C148.489 9.78034 149.066 9.87954 149.517 10.0213V15.6757C148.897 15.5623 148.404 15.4914 148.038 15.4631C147.672 15.4347 147.291 15.4206 146.897 15.4206C145.939 15.4206 145.221 15.619 144.742 16.0158C144.263 16.3842 144.023 16.9794 144.023 17.8014V20.5648H149.517V25.8791H144.023V42.5022H137.177ZM161.983 42.9273C159.419 42.9273 157.475 42.3321 156.151 41.1417C154.826 39.9513 154.164 38.1941 154.164 35.8699V25.8791H149.938V20.5648H154.164V14.4853L161.011 13.0823V20.5648H166.843V25.8791H161.011V34.5095C161.011 35.4731 161.222 36.1534 161.645 36.5502C162.096 36.947 162.842 37.1454 163.885 37.1454C164.279 37.1454 164.674 37.117 165.068 37.0603C165.462 37.0037 165.998 36.8761 166.674 36.6777V42.2471C166.054 42.4455 165.293 42.6014 164.392 42.7147C163.49 42.8565 162.687 42.9273 161.983 42.9273ZM171.154 42.9698C170.112 42.9698 169.21 42.573 168.449 41.7794C167.689 40.9858 167.308 40.0363 167.308 38.931C167.308 37.8256 167.689 36.8761 168.449 36.0825C169.21 35.2889 170.112 34.8921 171.154 34.8921C172.225 34.8921 173.126 35.2889 173.859 36.0825C174.62 36.8761 175 37.8256 175 38.931C175 40.0363 174.62 40.9858 173.859 41.7794C173.126 42.573 172.225 42.9698 171.154 42.9698Z" fill="black"/>
<mask id="mask0_1354_1259" style="mask-type:luminance" maskUnits="userSpaceOnUse" x="180" y="8" width="40" height="25">
<path d="M220 8H180V33H220V8Z" fill="white"/>
</mask>
<g mask="url(#mask0_1354_1259)">
<path d="M215 8H185C182.239 8 180 10.2386 180 13V28C180 30.7614 182.239 33 185 33H215C217.761 33 220 30.7614 220 28V13C220 10.2386 217.761 8 215 8Z" fill="#E6E6FF"/>
<mask id="mask1_1354_1259" style="mask-type:luminance" maskUnits="userSpaceOnUse" x="180" y="8" width="40" height="25">
<path d="M215 8H185C182.239 8 180 10.2386 180 13V28C180 30.7614 182.239 33 185 33H215C217.761 33 220 30.7614 220 28V13C220 10.2386 217.761 8 215 8Z" fill="white"/>
</mask>
<g mask="url(#mask1_1354_1259)">
<path d="M272 -52.417H132V93.416H272V-52.417Z" fill="#E6E6FF"/>
</g>
<path d="M187.866 25V18H191.076C191.516 18 191.903 18.08 192.236 18.24C192.576 18.3933 192.839 18.61 193.026 18.89C193.219 19.17 193.316 19.4933 193.316 19.86C193.316 20.2067 193.213 20.5167 193.006 20.79C192.806 21.0567 192.539 21.26 192.206 21.4C192.613 21.5333 192.936 21.7433 193.176 22.03C193.423 22.3167 193.546 22.6567 193.546 23.05C193.546 23.43 193.446 23.77 193.246 24.07C193.053 24.3633 192.779 24.5933 192.426 24.76C192.079 24.92 191.676 25 191.216 25H187.866ZM189.206 20.91H190.936C191.249 20.91 191.499 20.8267 191.686 20.66C191.879 20.4933 191.976 20.2733 191.976 20C191.976 19.72 191.883 19.4967 191.696 19.33C191.509 19.1633 191.256 19.08 190.936 19.08H189.206V20.91ZM189.206 23.92H191.056C191.403 23.92 191.679 23.83 191.886 23.65C192.093 23.4633 192.196 23.22 192.196 22.92C192.196 22.62 192.093 22.38 191.886 22.2C191.679 22.02 191.403 21.93 191.056 21.93H189.206V23.92ZM194.917 25V18H200.007V19.13H196.257V20.92H198.877V22.02H196.257V23.87H200.047V25H194.917ZM203.141 25V19.15H200.821V18H206.791V19.15H204.471V25H203.141ZM205.914 25L208.654 18H210.194L212.904 25H211.464L210.784 23.11H207.994L207.304 25H205.914ZM208.364 22.08H210.414L209.394 19.28L208.364 22.08Z" fill="#7069FA"/>
</g>
</svg>
