<svg width="20" height="20" viewBox="0 0 20 20" fill="none" xmlns="http://www.w3.org/2000/svg">
<circle cx="10.3998" cy="9.9999" r="7.6" fill="#E3E3E5"/>
<path d="M10 0C15.5228 0 20 4.47715 20 10C20 15.5228 15.5228 20 10 20C4.47715 20 0 15.5228 0 10C0 4.47715 4.47715 0 10 0ZM10 5C9.44771 5 9 5.44772 9 6V9H6C5.44772 9 5 9.44771 5 10C5 10.5523 5.44772 11 6 11H9V14C9 14.5523 9.44771 15 10 15C10.5523 15 11 14.5523 11 14V11H14C14.5523 11 15 10.5523 15 10C15 9.44772 14.5523 9 14 9H11V6C11 5.44772 10.5523 5 10 5Z" fill="black"/>
<mask id="mask0_2222_5861" style="mask-type:luminance" maskUnits="userSpaceOnUse" x="0" y="0" width="20" height="20">
<path d="M10 0C15.5228 0 20 4.47715 20 10C20 15.5228 15.5228 20 10 20C4.47715 20 0 15.5228 0 10C0 4.47715 4.47715 0 10 0ZM10 5C9.44771 5 9 5.44772 9 6V9H6C5.44772 9 5 9.44771 5 10C5 10.5523 5.44772 11 6 11H9V14C9 14.5523 9.44771 15 10 15C10.5523 15 11 14.5523 11 14V11H14C14.5523 11 15 10.5523 15 10C15 9.44772 14.5523 9 14 9H11V6C11 5.44772 10.5523 5 10 5Z" fill="white"/>
</mask>
<g mask="url(#mask0_2222_5861)">
<rect x="-55" y="-59" width="140" height="140" fill="#F5F6F7"/>
</g>
</svg>
