<svg width="16" height="16" viewBox="0 0 16 16" fill="none" xmlns="http://www.w3.org/2000/svg">
<circle cx="8" cy="8" r="8" fill="#EF4F4E"/>
<circle cx="8" cy="11" r="1" fill="white"/>
<path d="M7.5 8.5C7.1 8.9 7 6.33333 7 5H9C9 8.2 8.66667 8.66667 8.5 8.5C8.33333 8.33333 7.9 8.1 7.5 8.5Z" fill="white"/>
<path d="M8.75 8.25C8.75 8.66421 8.41421 9 8 9C7.58579 9 7.25 8.66421 7.25 8.25C7.25 7.83579 7.58579 7.5 8 7.5C8.41421 7.5 8.75 7.83579 8.75 8.25Z" fill="white"/>
<path d="M9 5C9 5.55228 8.55228 6 8 6C7.44772 6 7 5.55228 7 5C7 4.44772 7.44772 4 8 4C8.55228 4 9 4.44772 9 5Z" fill="white"/>
</svg>
