<svg width="23" height="23" viewBox="0 0 23 23" fill="none" xmlns="http://www.w3.org/2000/svg">
<mask id="mask0_2885_2304" style="mask-type:luminance" maskUnits="userSpaceOnUse" x="2" y="2" width="19" height="19">
<path fill-rule="evenodd" clip-rule="evenodd" d="M4.78249 18.2175C8.49247 21.9274 14.5076 21.9274 18.2175 18.2175C21.9275 14.5076 21.9275 8.49246 18.2175 4.78248C14.5076 1.07251 8.49247 1.07251 4.78249 4.78248C1.0725 8.49246 1.0725 14.5076 4.78249 18.2175ZM13.5153 8.14124C13.8863 7.77024 14.4878 7.77024 14.8588 8.14124C15.2297 8.51223 15.2297 9.11375 14.8588 9.48474L12.8436 11.5L14.8588 13.5152C15.2297 13.8863 15.2297 14.4878 14.8588 14.8588C14.4878 15.2298 13.8863 15.2298 13.5153 14.8588L11.5 12.8435L11.3937 12.9498L9.48476 14.8588C9.11376 15.2298 8.51224 15.2298 8.14125 14.8588C7.77026 14.4878 7.77026 13.8863 8.14125 13.5152L10.0502 11.6063L10.1565 11.5L8.14125 9.48474C7.77026 9.11375 7.77026 8.51223 8.14125 8.14124C8.51224 7.77024 9.11376 7.77024 9.48476 8.14124L11.5 10.1566L13.5153 8.14124Z" fill="white"/>
</mask>
<g mask="url(#mask0_2885_2304)">
<path d="M108.232 15.5305L14.1866 -78.5146L-79.8587 15.5305L14.1866 109.576L108.232 15.5305Z" fill="#D7D4DC"/>
</g>
</svg>
