<svg width="20" height="20" viewBox="0 0 20 20" fill="none" xmlns="http://www.w3.org/2000/svg">
<g clip-path="url(#clip0_2921_4925)">
<mask id="mask0_2921_4925" style="mask-type:luminance" maskUnits="userSpaceOnUse" x="0" y="0" width="20" height="20">
<path d="M12 0H8C3.58172 0 0 3.58172 0 8V12C0 16.4183 3.58172 20 8 20H12C16.4183 20 20 16.4183 20 12V8C20 3.58172 16.4183 0 12 0Z" fill="white"/>
</mask>
<g mask="url(#mask0_2921_4925)">
<path d="M10 18C14.4183 18 18 14.4183 18 10C18 5.58172 14.4183 2 10 2C5.58172 2 2 5.58172 2 10C2 14.4183 5.58172 18 10 18Z" fill="#EF4F4E"/>
<path d="M7.5 7.5L12.5 12.5" stroke="white" stroke-width="1.5" stroke-linecap="round"/>
<path d="M12.5 7.5L7.5 12.5" stroke="white" stroke-width="1.5" stroke-linecap="round"/>
<path d="M10 18C14.4183 18 18 14.4183 18 10C18 5.58172 14.4183 2 10 2C5.58172 2 2 5.58172 2 10C2 14.4183 5.58172 18 10 18Z" fill="#D7D4DC"/>
<path d="M7.5 7.5L12.5 12.5" stroke="white" stroke-width="1.5" stroke-linecap="round"/>
<path d="M12.5 7.5L7.5 12.5" stroke="white" stroke-width="1.5" stroke-linecap="round"/>
</g>
</g>
<defs>
<clipPath id="clip0_2921_4925">
<rect width="20" height="20" fill="white"/>
</clipPath>
</defs>
</svg>
