<svg width="20" height="20" viewBox="0 0 20 20" fill="none" xmlns="http://www.w3.org/2000/svg">
<path d="M1.33972 14.9999C1.06358 14.5216 1.22745 13.91 1.70574 13.6339L17.2942 4.63388C17.7725 4.35774 18.3841 4.52161 18.6602 4.9999C18.9364 5.4782 18.7725 6.08979 18.2942 6.36593L2.70574 15.3659C2.22745 15.6421 1.61586 15.4782 1.33972 14.9999Z" fill="#E6E6FF"/>
<path d="M0.955744 12.3348C0.541531 11.6174 0.787343 10.7 1.50478 10.2858L1.9378 10.0358L5.9378 16.964L5.50478 17.214C4.78734 17.6282 3.86996 17.3824 3.45574 16.665L0.955744 12.3348Z" fill="#A1A5FD"/>
<path d="M1.68779 9.60279C1.27358 8.88535 1.51939 7.96797 2.23683 7.55375C2.95427 7.13954 3.87166 7.38535 4.28587 8.10279L8.78587 15.897C9.20009 16.6145 8.95427 17.5318 8.23683 17.9461C7.51939 18.3603 6.60201 18.1145 6.1878 17.397L1.68779 9.60279Z" fill="#A1A5FD"/>
<path d="M14.0622 3.0358L14.4952 2.7858C15.2126 2.37159 16.13 2.6174 16.5442 3.33484L19.0442 7.66497C19.4584 8.38241 19.2126 9.29979 18.4952 9.71401L18.0622 9.96401L14.0622 3.0358Z" fill="#A1A5FD"/>
<path d="M11.2141 4.10279C10.7999 3.38535 11.0457 2.46796 11.7631 2.05375C12.4806 1.63954 13.3979 1.88535 13.8122 2.60279L18.3122 10.397C18.7264 11.1145 18.4806 12.0318 17.7631 12.4461C17.0457 12.8603 16.1283 12.6145 15.7141 11.897L11.2141 4.10279Z" fill="#A1A5FD"/>
</svg>
