<svg width="35" height="35" viewBox="0 0 35 35" fill="none" xmlns="http://www.w3.org/2000/svg">
<g clip-path="url(#clip0_2885_2292)">
<path d="M29.6021 13.9745L20.9436 5.31239L24.6543 1.60008C26.0205 0.233242 28.2357 0.233242 29.6021 1.60008L33.3128 5.31239C34.679 6.67923 34.679 8.8953 33.3128 10.2621L29.6021 13.9745Z" fill="#7069FA"/>
<path fill-rule="evenodd" clip-rule="evenodd" d="M11.0479 32.5359L2.19737 34.8671C0.901852 35.208 -0.28158 34.0241 0.0593272 32.7281L2.26863 24.3307C2.3475 24.0313 2.50516 23.7581 2.72403 23.5392L19.7064 6.5498L28.3649 15.2118L11.0479 32.5359ZM8.51606 27.3493C7.9338 27.4658 7.40745 26.9811 7.47603 26.3912L7.72366 24.2605L5.87311 24.8116C5.25214 24.9966 4.78399 25.509 4.65672 26.1446L3.62635 31.2985L8.66705 30.2895C9.35953 30.1509 9.90078 29.6094 10.0393 28.9168L10.4294 26.9674L8.51606 27.3493ZM21.2525 10.5715C20.7401 10.0589 19.9094 10.0589 19.3972 10.5715L8.88328 21.0897C8.37093 21.6023 8.37093 22.4332 8.88328 22.9458C9.39563 23.4583 10.2263 23.4583 10.7387 22.9458L21.2525 12.4276C21.7649 11.9151 21.7649 11.084 21.2525 10.5715Z" fill="#7069FA"/>
</g>
<defs>
<clipPath id="clip0_2885_2292">
<rect width="35" height="35" fill="white"/>
</clipPath>
</defs>
</svg>
