<svg width="25" height="25" viewBox="0 0 25 25" fill="none" xmlns="http://www.w3.org/2000/svg">
  <path d="M4 4.5L21 21.5" stroke="#5D6494" stroke-width="1.5" stroke-linecap="round" stroke-linejoin="round"/>
  <path d="M9.5 9.02C7.9 9.79 6.6 11.01 6 12.5C7.4 16.9 11.5 20 16.5 20C17.8774 20 19.2015 19.7394 20.4165 19.2621" stroke="#5D6494" stroke-width="1.5" stroke-linecap="round" stroke-linejoin="round"/>
  <path d="M18.39 12.08C18.6576 11.5922 18.8003 11.0433 18.8 10.485C18.8 7.739 16.546 5.5 13.8 5.5C12.7732 5.49995 11.7708 5.82924 10.9384 6.43907" stroke="#5D6494" stroke-width="1.5" stroke-linecap="round" stroke-linejoin="round"/>
  <path d="M12.5 15C13.6046 15 14.5 14.1046 14.5 13C14.5 11.8954 13.6046 11 12.5 11C11.3954 11 10.5 11.8954 10.5 13C10.5 14.1046 11.3954 15 12.5 15Z" fill="#5D6494"/>
</svg>
