<svg width="20" height="20" viewBox="0 0 20 20" fill="none" xmlns="http://www.w3.org/2000/svg">
<path d="M10.0573 6.58008C11.4876 6.58008 12.6472 5.42057 12.6472 3.99024C12.6472 2.5599 11.4876 1.40039 10.0573 1.40039C8.62698 1.40039 7.46747 2.5599 7.46747 3.99024C7.46747 5.42057 8.62698 6.58008 10.0573 6.58008Z" stroke="#A1A5FD" stroke-width="2"/>
<path d="M3.78187 6.57234C4.02057 5.66098 4.84405 5.02539 5.78615 5.02539H14.3285C15.2706 5.02539 16.0941 5.66098 16.3328 6.57234L19.046 16.9317C19.3899 18.2449 18.3992 19.5285 17.0417 19.5285H3.07298C1.7155 19.5285 0.724773 18.2449 1.0687 16.9317L3.78187 6.57234Z" fill="#E6E6FF"/>
<path d="M6.72039 15C6.59906 15 6.49872 14.9603 6.41939 14.881C6.34006 14.797 6.30039 14.6943 6.30039 14.573V10.247C6.30039 10.1257 6.34006 10.0253 6.41939 9.946C6.49872 9.862 6.59906 9.82 6.72039 9.82C6.84172 9.82 6.94206 9.862 7.02139 9.946C7.10072 10.0253 7.14039 10.1257 7.14039 10.247V14.573C7.14039 14.6943 7.10072 14.797 7.02139 14.881C6.94206 14.9603 6.84172 15 6.72039 15ZM8.94639 11.255C9.05372 11.255 9.14706 11.2993 9.22639 11.388C9.30572 11.4767 9.34539 11.563 9.34539 11.647C9.34539 11.759 9.28939 11.864 9.17739 11.962L7.07039 13.901L7.03539 12.935L8.63839 11.388C8.72706 11.2993 8.82972 11.255 8.94639 11.255ZM9.05139 14.993C8.93006 14.993 8.82739 14.9463 8.74339 14.853L7.44839 13.481L8.08539 12.893L9.34539 14.265C9.43406 14.3583 9.47839 14.4633 9.47839 14.58C9.47839 14.7013 9.42939 14.8017 9.33139 14.881C9.23806 14.9557 9.14472 14.993 9.05139 14.993ZM11.7697 11.185C11.9657 11.185 12.1454 11.2153 12.3087 11.276C12.4721 11.3367 12.6121 11.4137 12.7287 11.507C12.8501 11.6003 12.9434 11.696 13.0087 11.794C13.0787 11.8873 13.1137 11.9667 13.1137 12.032L12.9317 12.123V11.612C12.9317 11.4907 12.9714 11.3903 13.0507 11.311C13.1301 11.227 13.2304 11.185 13.3517 11.185C13.4731 11.185 13.5734 11.2247 13.6527 11.304C13.7321 11.3833 13.7717 11.486 13.7717 11.612V14.727C13.7717 15.133 13.6831 15.4573 13.5057 15.7C13.3331 15.9473 13.1044 16.1247 12.8197 16.232C12.5351 16.344 12.2294 16.4 11.9027 16.4C11.8094 16.4 11.6881 16.3883 11.5387 16.365C11.3894 16.3417 11.2471 16.3137 11.1117 16.281C10.9764 16.2483 10.8737 16.218 10.8037 16.19C10.6637 16.1293 10.5657 16.0523 10.5097 15.959C10.4584 15.8703 10.4491 15.7747 10.4817 15.672C10.5237 15.5367 10.5914 15.4433 10.6847 15.392C10.7781 15.3453 10.8761 15.3407 10.9787 15.378C11.0254 15.392 11.1024 15.42 11.2097 15.462C11.3171 15.504 11.4337 15.5413 11.5597 15.574C11.6904 15.6113 11.8047 15.63 11.9027 15.63C12.2527 15.63 12.5117 15.56 12.6797 15.42C12.8477 15.28 12.9317 15.0863 12.9317 14.839V14.23L13.0157 14.293C13.0157 14.3537 12.9831 14.4283 12.9177 14.517C12.8571 14.601 12.7707 14.685 12.6587 14.769C12.5514 14.853 12.4231 14.9253 12.2737 14.986C12.1244 15.042 11.9657 15.07 11.7977 15.07C11.4664 15.07 11.1677 14.9883 10.9017 14.825C10.6357 14.657 10.4257 14.4283 10.2717 14.139C10.1177 13.845 10.0407 13.509 10.0407 13.131C10.0407 12.7483 10.1177 12.4123 10.2717 12.123C10.4257 11.829 10.6334 11.6003 10.8947 11.437C11.1561 11.269 11.4477 11.185 11.7697 11.185ZM11.9027 11.955C11.6927 11.955 11.5084 12.0063 11.3497 12.109C11.1911 12.2117 11.0674 12.3517 10.9787 12.529C10.8901 12.7063 10.8457 12.907 10.8457 13.131C10.8457 13.3503 10.8901 13.5487 10.9787 13.726C11.0674 13.9033 11.1911 14.0433 11.3497 14.146C11.5084 14.2487 11.6927 14.3 11.9027 14.3C12.1174 14.3 12.3041 14.2487 12.4627 14.146C12.6214 14.0433 12.7451 13.9033 12.8337 13.726C12.9224 13.5487 12.9667 13.3503 12.9667 13.131C12.9667 12.907 12.9224 12.7063 12.8337 12.529C12.7451 12.3517 12.6214 12.2117 12.4627 12.109C12.3041 12.0063 12.1174 11.955 11.9027 11.955Z" fill="#A1A5FD"/>
</svg>
