<svg width="20" height="20" viewBox="0 0 20 20" fill="none" xmlns="http://www.w3.org/2000/svg">
<path d="M10 0C15.5228 0 20 4.47715 20 10C20 15.5228 15.5228 20 10 20C4.47715 20 0 15.5228 0 10C0 4.47715 4.47715 0 10 0ZM3.25 9C2.55964 9 2 9.55964 2 10.25C2 10.9404 2.55964 11.5 3.25 11.5C3.94036 11.5 4.5 10.9404 4.5 10.25C4.5 9.55964 3.94036 9 3.25 9ZM16.75 9C16.0596 9 15.5 9.55964 15.5 10.25C15.5 10.9404 16.0596 11.5 16.75 11.5C17.4404 11.5 18 10.9404 18 10.25C18 9.55964 17.4404 9 16.75 9ZM5.25 4.5C4.55964 4.5 4 5.05964 4 5.75C4 6.44036 4.55964 7 5.25 7C5.94036 7 6.5 6.44036 6.5 5.75C6.5 5.05964 5.94036 4.5 5.25 4.5ZM9.75 2C9.05964 2 8.5 2.55964 8.5 3.25C8.5 3.94036 9.05964 4.5 9.75 4.5C10.4404 4.5 11 3.94036 11 3.25C11 2.55964 10.4404 2 9.75 2Z" fill="#E6E6FF"/>
<circle cx="9.75" cy="13.25" r="2.25" fill="#A1A5FD"/>
<rect x="13.792" y="4.13184" width="2" height="10.849" rx="1" transform="rotate(29.1912 13.792 4.13184)" fill="#A1A5FD"/>
</svg>
