<svg width="20" height="20" viewBox="0 0 20 20" fill="none" xmlns="http://www.w3.org/2000/svg">
<path d="M13.7 6.64959V1.17185C13.7 0.317914 14.7013 -0.143142 15.3501 0.412024L18.3629 2.98978C18.8115 3.37364 18.8317 4.0606 18.4063 4.47007L15.3935 7.37005C14.7582 7.98153 13.7 7.53133 13.7 6.64959Z" fill="#A1A5FD"/>
<path d="M1.25 9.9992C1.5 7 3.5 3.69922 7.45968 3.69922C12.0016 3.69922 15.2957 3.69922 16.5 3.69922" stroke="#A1A5FD" stroke-width="2.25" stroke-linecap="round"/>
<path d="M6.25001 13.3497V18.8274C6.25001 19.6813 5.24874 20.1424 4.59989 19.5872L1.58713 17.0095C1.13849 16.6256 1.11836 15.9387 1.54376 15.5292L4.55652 12.6292C5.19178 12.0177 6.25001 12.4679 6.25001 13.3497Z" fill="#E6E6FF"/>
<path d="M18.7 10C18.45 12.9992 16.45 16.3 12.4903 16.3C7.9484 16.3 4.65431 16.3 3.45001 16.3" stroke="#E6E6FF" stroke-width="2.25" stroke-linecap="round"/>
</svg>
