<svg width="30" height="30" viewBox="0 0 30 30" fill="none" xmlns="http://www.w3.org/2000/svg">
<path d="M28 2.25C29.1046 2.25 30 3.14543 30 4.25V25.75C30 26.8546 29.1046 27.75 28 27.75H2C0.895431 27.75 3.82533e-08 26.8546 0 25.75V4.25C0 3.14543 0.895431 2.25 2 2.25H28ZM3.75 6V24H26.25V6H3.75Z" fill="#E6E6FF"/>
<rect x="15" y="15" width="15" height="12.75" rx="2" fill="#A1A5FD"/>
<path d="M5.99951 14.7929V8.5C5.99951 8.22386 6.22337 8 6.49951 8H12.7924C13.2379 8 13.4609 8.53857 13.146 8.85355L6.85307 15.1464C6.53808 15.4614 5.99951 15.2383 5.99951 14.7929Z" fill="#A1A5FD"/>
<path d="M11.5158 15.2845C12.004 15.7726 12.7955 15.7726 13.2836 15.2845C13.7718 14.7963 13.7718 14.0049 13.2836 13.5167L12.3997 14.4006L11.5158 15.2845ZM7.59973 9.60059L6.71585 10.4845L11.5158 15.2845L12.3997 14.4006L13.2836 13.5167L8.48361 8.7167L7.59973 9.60059Z" fill="#A1A5FD"/>
</svg>
