<svg width="21" height="20" viewBox="0 0 21 20" fill="none" xmlns="http://www.w3.org/2000/svg">
<path d="M10.1604 3C14.0264 3 17.1604 6.13401 17.1604 10C17.1604 13.866 14.0264 17 10.1604 17C6.29441 17 3.1604 13.866 3.1604 10C3.1604 6.13401 6.29441 3 10.1604 3ZM10.1604 6.5C8.2274 6.5 6.6604 8.067 6.6604 10C6.6604 11.933 8.2274 13.5 10.1604 13.5C12.0934 13.5 13.6604 11.933 13.6604 10C13.6604 8.067 12.0934 6.5 10.1604 6.5Z" fill="#ECE9F1"/>
<circle cx="10.1604" cy="10" r="2" fill="#D7D4DC"/>
<path d="M7.97103 0.757464C8.08233 0.312297 8.48231 0 8.94118 0H11.3796C11.8385 0 12.2385 0.312297 12.3498 0.757464L13.1604 4H7.1604L7.97103 0.757464Z" fill="#ECE9F1"/>
<path d="M12.3498 19.2425C12.2385 19.6877 11.8385 20 11.3796 20H8.94118C8.48231 20 8.08233 19.6877 7.97103 19.2425L7.1604 16H13.1604L12.3498 19.2425Z" fill="#ECE9F1"/>
<path d="M1.06142 7.27485C0.731542 6.95588 0.661076 6.45334 0.89051 6.05595L2.10973 3.94419C2.33917 3.5468 2.80962 3.35655 3.25079 3.48275L6.46422 4.40199L3.46422 9.59814L1.06142 7.27485Z" fill="#ECE9F1"/>
<path d="M19.2593 12.7253C19.5892 13.0443 19.6597 13.5468 19.4302 13.9442L18.211 16.0559C17.9816 16.4533 17.5111 16.6436 17.07 16.5174L13.8565 15.5981L16.8565 10.402L19.2593 12.7253Z" fill="#ECE9F1"/>
<path d="M3.25067 16.5174C2.80949 16.6436 2.33905 16.4533 2.10961 16.0559L0.890388 13.9442C0.660954 13.5468 0.73142 13.0443 1.0613 12.7253L3.4641 10.402L6.4641 15.5981L3.25067 16.5174Z" fill="#ECE9F1"/>
<path d="M17.0698 3.48275C17.511 3.35655 17.9815 3.5468 18.2109 3.94419L19.4301 6.05595C19.6596 6.45334 19.5891 6.95588 19.2592 7.27485L16.8564 9.59814L13.8564 4.40199L17.0698 3.48275Z" fill="#ECE9F1"/>
</svg>
