<svg width="22" height="22" viewBox="0 0 22 22" fill="none" xmlns="http://www.w3.org/2000/svg">
<path d="M11 20.625C16.3157 20.625 20.625 16.3157 20.625 11C20.625 5.68426 16.3157 1.375 11 1.375C5.68426 1.375 1.375 5.68426 1.375 11C1.375 16.3157 5.68426 20.625 11 20.625Z" fill="url(#paint0_linear_2198_1760)"/>
<path fill-rule="evenodd" clip-rule="evenodd" d="M4.2627 12.9253C4.2627 12.9253 11.2126 15.2611 18.0469 12.9253C18.0469 12.9253 17.1878 18.5627 12.161 19.119C12.161 19.119 7.33362 19.4794 6.01238 17.2119C4.2627 15.2751 4.2627 12.9253 4.2627 12.9253Z" fill="#97959A"/>
<path d="M8.21312 7.63135C9.06589 7.63135 9.75733 8.61887 9.75733 9.83708C9.75733 10.4481 9.58266 11.0006 9.30166 11.4001C9.22072 10.765 8.765 10.2785 8.21312 10.2784C7.66119 10.2784 7.2051 10.7649 7.12416 11.4001C6.8433 11.0006 6.66895 10.4479 6.66895 9.83708C6.66895 8.61892 7.36043 7.63135 8.21312 7.63135Z" fill="#97959A"/>
<path d="M13.5061 7.63135C14.3588 7.63149 15.0498 8.61896 15.0498 9.83708C15.0498 10.4484 14.8754 11.0015 14.5942 11.401C14.5135 10.7654 14.0578 10.2784 13.5057 10.2784C12.9536 10.2784 12.4975 10.7651 12.4167 11.4005C12.1357 11.0011 11.9619 10.448 11.9619 9.83708C11.9619 8.61887 12.6534 7.63135 13.5061 7.63135Z" fill="#97959A"/>
<path d="M17.3197 3.05499C17.4827 2.6972 17.9911 2.69713 18.154 3.05499L19.8087 6.6903C20.021 7.0489 20.1436 7.46713 20.1436 7.91405C20.1435 9.2429 19.0662 10.3202 17.7373 10.3203C16.4084 10.3203 15.3311 9.24295 15.3311 7.91405C15.3311 7.47474 15.4491 7.06316 15.6546 6.70868L17.3197 3.05499Z" fill="#C1BFC7"/>
<path fill-rule="evenodd" clip-rule="evenodd" d="M4.74316 13.4857C4.74316 13.4857 11.8701 15.5529 17.7369 13.4062C17.7369 13.4062 16.9484 15.1641 16.5634 15.4108C16.5634 15.4108 11.8197 17.278 5.66661 15.4604C5.66661 15.4604 5.13783 15.2977 4.80201 13.6915" fill="white"/>
<defs>
<linearGradient id="paint0_linear_2198_1760" x1="1.375" y1="1.375" x2="1.375" y2="20.625" gradientUnits="userSpaceOnUse">
<stop stop-color="#EBE9F2"/>
<stop offset="1" stop-color="#D9D4DD"/>
</linearGradient>
</defs>
</svg>
