<svg width="20" height="20" viewBox="0 0 20 20" fill="none" xmlns="http://www.w3.org/2000/svg">
<circle cx="10.4" cy="9.9999" r="7.6" fill="#E3E3E5"/>
<mask id="mask0_2913_4044" style="mask-type:luminance" maskUnits="userSpaceOnUse" x="0" y="0" width="20" height="20">
<path d="M10 0C15.5228 0 20 4.47715 20 10C20 15.5228 15.5228 20 10 20C4.47715 20 0 15.5228 0 10C0 4.47715 4.47715 0 10 0ZM6 9C5.44772 9 5 9.44772 5 10C5 10.5523 5.44772 11 6 11H14C14.5523 11 15 10.5523 15 10C15 9.44772 14.5523 9 14 9H6Z" fill="white"/>
</mask>
<g mask="url(#mask0_2913_4044)">
<rect x="-55" y="-59" width="140" height="140" fill="#F5F6F7"/>
</g>
</svg>
