<svg width="20" height="20" viewBox="0 0 20 20" fill="none" xmlns="http://www.w3.org/2000/svg">
<path d="M12.8 0H7.20002C6.7582 0 6.40002 0.358165 6.40002 0.799985V1.59997C6.40002 2.04179 6.7582 2.39995 7.20002 2.39995H12.8C13.2419 2.39995 13.6 2.04179 13.6 1.59997V0.799985C13.6 0.358165 13.2419 0 12.8 0Z" fill="#A1A5FD"/>
<path d="M11.2 7.19968V1.59979C11.2 1.15797 10.8418 0.799805 10.4 0.799805L9.59995 0.799805C9.15812 0.799805 8.79995 1.15797 8.79995 1.59979V7.19968C8.79995 7.6415 9.15812 7.99967 9.59995 7.99967H10.4C10.8418 7.99967 11.2 7.6415 11.2 7.19968Z" fill="#A1A5FD"/>
<path d="M15.8854 3.8128L13.3142 6.87692C13.0302 7.21538 13.0744 7.71997 13.4128 8.00397L14.0257 8.51819C14.3641 8.80218 14.8687 8.75804 15.1527 8.41958L17.7239 5.35546C18.0079 5.01701 17.9637 4.51242 17.6253 4.22842L17.0124 3.7142C16.674 3.4302 16.1694 3.47435 15.8854 3.8128Z" fill="#A1A5FD"/>
<path d="M9.99998 19.9999C14.6392 19.9999 18.4 16.2391 18.4 11.6C18.4 6.96093 14.6392 3.2002 9.99998 3.2002C5.36078 3.2002 1.59998 6.96093 1.59998 11.6C1.59998 16.2391 5.36078 19.9999 9.99998 19.9999Z" fill="#E6E6FF"/>
<path d="M8.79999 6.39962V11.1995C8.79999 11.6413 9.15816 11.9995 9.59999 11.9995H10.1333C10.5752 11.9995 10.9333 11.6413 10.9333 11.1995V6.39962C10.9333 5.9578 10.5752 5.59963 10.1333 5.59963H9.59999C9.15816 5.59963 8.79999 5.9578 8.79999 6.39962Z" fill="#A1A5FD"/>
</svg>
