<svg width="20" height="20" viewBox="0 0 20 20" fill="none" xmlns="http://www.w3.org/2000/svg">
<path d="M17.6465 2C18.3938 2.00013 19 2.63979 19 3.42871V18.5713C19 19.3602 18.3938 19.9999 17.6465 20H2.35352C1.60608 20 1 19.3603 1 18.5713V3.42871C1 2.63972 1.60608 2 2.35352 2H17.6465ZM4.18164 14C3.99478 14 3.84277 14.1602 3.84277 14.3574V16.1436C3.84297 16.3406 3.9949 16.5 4.18164 16.5H5.87305C6.0597 16.4999 6.21074 16.3406 6.21094 16.1436V14.3574C6.21094 14.1602 6.05982 14.0001 5.87305 14H4.18164ZM8.91797 14C8.73111 14 8.5791 14.1602 8.5791 14.3574V16.1436C8.5793 16.3406 8.73123 16.5 8.91797 16.5H10.6094C10.7961 16.5 10.948 16.3406 10.9482 16.1436V14.3574C10.9482 14.1602 10.7962 14 10.6094 14H8.91797ZM13.6543 14C13.4676 14.0002 13.3164 14.1603 13.3164 14.3574V16.1436C13.3166 16.3405 13.4677 16.4998 13.6543 16.5H15.3467C15.5333 16.4998 15.6844 16.3405 15.6846 16.1436V14.3574C15.6846 14.1603 15.5334 14.0002 15.3467 14H13.6543ZM4.18164 9C3.99478 9 3.84277 9.16017 3.84277 9.35742V11.1436C3.84298 11.3406 3.99491 11.5 4.18164 11.5H5.87305C6.05969 11.4999 6.21073 11.3406 6.21094 11.1436V9.35742C6.21094 9.16024 6.05982 9.0001 5.87305 9H4.18164ZM8.91797 9C8.73111 9 8.5791 9.16017 8.5791 9.35742V11.1436C8.57931 11.3406 8.73124 11.5 8.91797 11.5H10.6094C10.7961 11.5 10.948 11.3406 10.9482 11.1436V9.35742C10.9482 9.16017 10.7962 9 10.6094 9H8.91797ZM13.6543 9C13.4676 9.0002 13.3164 9.1603 13.3164 9.35742V11.1436C13.3166 11.3405 13.4677 11.4998 13.6543 11.5H15.3467C15.5333 11.4998 15.6844 11.3405 15.6846 11.1436V9.35742C15.6846 9.16029 15.5334 9.00019 15.3467 9H13.6543Z" fill="#E6E6FF"/>
<path d="M1 3.42836C1 2.63936 1.60592 1.99976 2.35335 1.99976H17.6463C18.3937 1.99976 18.9996 2.63936 18.9996 3.42836V6.49985H1V3.42836Z" fill="#A1A5FD"/>
<path d="M6.8205 0H5.12881C4.94195 0 4.79047 0.159901 4.79047 0.35715V4.64295C4.79047 4.8402 4.94195 5.0001 5.12881 5.0001H6.8205C7.00736 5.0001 7.15884 4.8402 7.15884 4.64295V0.35715C7.15884 0.159901 7.00736 0 6.8205 0Z" fill="#E6E6FF"/>
<path d="M14.3987 0H12.7071C12.5202 0 12.3687 0.159901 12.3687 0.35715V4.64295C12.3687 4.8402 12.5202 5.0001 12.7071 5.0001H14.3987C14.5856 5.0001 14.7371 4.8402 14.7371 4.64295V0.35715C14.7371 0.159901 14.5856 0 14.3987 0Z" fill="#E6E6FF"/>
</svg>
