<svg width="20" height="20" viewBox="0 0 20 20" fill="none" xmlns="http://www.w3.org/2000/svg">
<path d="M1.3397 14.9999C1.06356 14.5216 1.22744 13.91 1.70573 13.6339L17.2942 4.63388C17.7725 4.35774 18.3841 4.52161 18.6602 4.9999C18.9364 5.4782 18.7725 6.08979 18.2942 6.36593L2.70573 15.3659C2.22744 15.6421 1.61585 15.4782 1.3397 14.9999Z" fill="#E6E6FF"/>
<path d="M0.955729 12.3348C0.541515 11.6174 0.787328 10.7 1.50477 10.2858L1.93778 10.0358L5.93778 16.964L5.50477 17.214C4.78733 17.6282 3.86994 17.3824 3.45573 16.665L0.955729 12.3348Z" fill="#A1A5FD"/>
<path d="M1.68778 9.60279C1.27357 8.88535 1.51938 7.96797 2.23682 7.55375C2.95426 7.13954 3.87164 7.38535 4.28586 8.10279L8.78586 15.897C9.20007 16.6145 8.95426 17.5318 8.23682 17.9461C7.51938 18.3603 6.60199 18.1145 6.18778 17.397L1.68778 9.60279Z" fill="#A1A5FD"/>
<path d="M14.0621 3.0358L14.4951 2.7858C15.2126 2.37159 16.13 2.6174 16.5442 3.33484L19.0442 7.66497C19.4584 8.38241 19.2126 9.29979 18.4951 9.71401L18.0621 9.96401L14.0621 3.0358Z" fill="#A1A5FD"/>
<path d="M11.2141 4.10279C10.7998 3.38535 11.0457 2.46796 11.7631 2.05375C12.4805 1.63954 13.3979 1.88535 13.8121 2.60279L18.3121 10.397C18.7263 11.1145 18.4805 12.0318 17.7631 12.4461C17.0457 12.8603 16.1283 12.6145 15.7141 11.897L11.2141 4.10279Z" fill="#A1A5FD"/>
</svg>
