<svg width="25" height="25" viewBox="0 0 25 25" fill="none" xmlns="http://www.w3.org/2000/svg">
  <path d="M12.5 5C7.5 5 3.4 8.1 2 12.5C3.4 16.9 7.5 20 12.5 20C17.5 20 21.6 16.9 23 12.5C21.6 8.1 17.5 5 12.5 5Z" stroke="#5D6494" stroke-width="1.5" stroke-linecap="round" stroke-linejoin="round"/>
  <path d="M12.5 16C14.9853 16 17 13.9853 17 11.5C17 9.01472 14.9853 7 12.5 7C10.0147 7 8 9.01472 8 11.5C8 13.9853 10.0147 16 12.5 16Z" stroke="#5D6494" stroke-width="1.5" stroke-linecap="round" stroke-linejoin="round"/>
  <path d="M12.5 13C13.6046 13 14.5 12.1046 14.5 11C14.5 9.89543 13.6046 9 12.5 9C11.3954 9 10.5 9.89543 10.5 11C10.5 12.1046 11.3954 13 12.5 13Z" fill="#5D6494"/>
</svg>
